# This file uses centimeters as units for non-parametric coordinates.

v 0.370482 0.640057 0.383551
v 0.370483 0.640057 -0.354939
v 0.370482 0.705143 0.383551
v 0.370483 0.705143 -0.354939
v -0.357868 0.705143 0.383551
v -0.357868 0.705143 -0.354938
v -0.357868 0.640057 0.383551
v -0.357868 0.640057 -0.354938
v 0.370482 0.728495 0.383551
v 0.370483 0.728495 -0.354939
v -0.357868 0.728495 -0.354938
v -0.357868 0.728495 0.383551
v 0.490851 0.705129 0.506843
v 0.490851 0.705159 -0.478230
v 0.490851 0.728480 -0.478230
v 0.490851 0.728510 0.506843
v -0.480697 0.705159 -0.478230
v -0.480697 0.728480 -0.478230
v -0.480698 0.705129 0.506843
v -0.480698 0.728510 0.506843
v 0.395500 0.074982 -0.329357
v 0.395500 0.074982 -0.380393
v 0.395500 0.717175 -0.329357
v 0.395500 0.717175 -0.380393
v 0.345165 0.717175 -0.329357
v 0.345165 0.717175 -0.380392
v 0.345165 0.074982 -0.329357
v 0.345165 0.074982 -0.380392
v 0.370482 0.246610 0.383551
v 0.370482 0.246610 -0.354939
v 0.370482 0.272416 0.383551
v 0.370482 0.272416 -0.354939
v -0.357868 0.272416 0.383550
v -0.357867 0.272416 -0.354939
v -0.357868 0.246610 0.383550
v -0.357867 0.246610 -0.354939
v -0.382884 0.074982 -0.329357
v -0.382884 0.074982 -0.380392
v -0.382884 0.717175 -0.329357
v -0.382884 0.717175 -0.380392
v -0.332549 0.717175 -0.329357
v -0.332549 0.717175 -0.380392
v -0.332549 0.074982 -0.329357
v -0.332549 0.074982 -0.380392
v -0.382884 0.074982 0.357969
v -0.382884 0.074982 0.409004
v -0.382884 0.717175 0.357969
v -0.382884 0.717175 0.409004
v -0.332549 0.717175 0.357969
v -0.332549 0.717175 0.409005
v -0.332549 0.074982 0.357969
v -0.332549 0.074982 0.409005
v 0.395500 0.074982 0.357969
v 0.395500 0.074982 0.409005
v 0.395500 0.717175 0.357969
v 0.395500 0.717175 0.409005
v 0.345165 0.717175 0.357970
v 0.345165 0.717175 0.409005
v 0.345165 0.074982 0.357970
v 0.345165 0.074982 0.409005
vt 0.347903 0.711537
vt 0.254942 0.711537
vt 0.249016 0.705821
vt 0.353829 0.705821
vt 0.565175 0.622483
vt 0.836984 0.622483
vt 0.836984 0.888405
vt 0.565175 0.888405
vt 0.353829 0.806919
vt 0.249016 0.806919
vt 0.254942 0.801204
vt 0.347903 0.801204
vt 0.501251 0.563793
vt 0.898359 0.563793
vt 0.882362 0.578323
vt 0.519797 0.578323
vt 0.898359 0.949289
vt 0.882362 0.934759
vt 0.501251 0.949289
vt 0.519797 0.934759
vt 0.231518 0.689113
vt 0.371327 0.689113
vt 0.231518 0.823969
vt 0.371327 0.823969
vt 0.151898 0.026065
vt 0.194020 0.026063
vt 0.194020 0.284619
vt 0.151898 0.284617
vt 0.151902 0.326739
vt 0.111271 0.326744
vt 0.111267 0.284621
vt 0.069145 0.284620
vt 0.069145 0.026065
vt 0.111267 0.026064
vt 0.028514 0.026065
vt 0.028514 0.284621
vt 0.781115 0.340912
vt 0.973378 0.340912
vt 0.973378 0.348523
vt 0.781115 0.348523
vt 0.973378 0.534618
vt 0.781115 0.534618
vt 0.973378 0.542121
vt 0.781115 0.542121
vt 0.773545 0.534618
vt 0.580478 0.534618
vt 0.580478 0.348523
vt 0.773545 0.348523
vt 0.980964 0.348523
vt 0.980964 0.534618
vt 0.254555 0.026153
vt 0.254555 0.284705
vt 0.212433 0.284709
vt 0.212432 0.026149
vt 0.295188 0.325341
vt 0.295187 0.284710
vt 0.337309 0.284709
vt 0.337311 0.325340
vt 0.295186 0.026151
vt 0.337309 0.026152
vt 0.377940 0.026151
vt 0.377940 0.284709
vt 0.517057 0.025853
vt 0.559180 0.025850
vt 0.559180 0.284407
vt 0.517057 0.284405
vt 0.517061 0.326527
vt 0.476431 0.326531
vt 0.476427 0.284409
vt 0.434304 0.284408
vt 0.434304 0.025853
vt 0.476427 0.025852
vt 0.393674 0.025853
vt 0.393673 0.284409
vt 0.618051 0.029064
vt 0.618051 0.287616
vt 0.575928 0.287620
vt 0.575928 0.029061
vt 0.658683 0.328252
vt 0.658682 0.287621
vt 0.700805 0.287620
vt 0.700806 0.328251
vt 0.658682 0.029062
vt 0.700804 0.029063
vt 0.741435 0.029063
vt 0.741436 0.287620
vn 1.000000 0.000000 0.000000
vn 1.000000 0.000000 0.000000
vn 1.000000 0.000000 0.000000
vn 1.000000 0.000000 0.000000
vn 0.000000 1.000000 -0.000026
vn 0.000000 1.000000 -0.000026
vn 0.000000 1.000000 -0.000026
vn 0.000000 1.000000 -0.000026
vn -1.000000 0.000000 -0.000000
vn -1.000000 0.000000 -0.000000
vn -1.000000 0.000000 -0.000000
vn -1.000000 0.000000 -0.000000
vn 0.000000 -1.000000 0.000000
vn 0.000000 -1.000000 0.000000
vn 0.000000 -1.000000 0.000000
vn 0.000000 -1.000000 0.000000
vn 0.000000 0.000000 -1.000000
vn 0.000000 0.000000 -1.000000
vn 0.000000 0.000000 -1.000000
vn 0.000000 0.000000 -1.000000
vn -0.000000 0.000000 1.000000
vn -0.000000 0.000000 1.000000
vn -0.000000 0.000000 1.000000
vn -0.000000 0.000000 1.000000
vn 1.000000 0.000000 0.000000
vn 1.000000 0.000000 0.000000
vn 1.000000 0.000000 0.000000
vn 1.000000 0.000000 0.000000
vn 0.000000 0.000000 -1.000000
vn 0.000000 0.000000 -1.000000
vn 0.000000 0.000000 -1.000000
vn 0.000000 0.000000 -1.000000
vn -1.000000 0.000000 -0.000000
vn -1.000000 0.000000 -0.000000
vn -1.000000 0.000000 -0.000000
vn -1.000000 0.000000 -0.000000
vn -0.000000 0.000000 1.000000
vn -0.000000 0.000000 1.000000
vn -0.000000 0.000000 1.000000
vn -0.000000 0.000000 1.000000
vn 0.000000 -1.000000 -0.000068
vn 0.000000 -1.000000 -0.000068
vn 0.000000 -1.000000 -0.000068
vn 0.000000 -1.000000 -0.000070
vn 0.000000 1.000000 -0.000026
vn 0.000000 1.000000 -0.000026
vn 0.000000 1.000000 -0.000070
vn 0.000000 1.000000 -0.000070
vn 0.000000 -1.000000 -0.000068
vn 0.000000 -1.000000 -0.000066
vn 0.000000 -1.000000 -0.000068
vn 0.000000 -1.000000 -0.000068
vn 0.000000 1.000000 -0.000026
vn 0.000000 1.000000 -0.000026
vn 0.000000 1.000000 -0.000070
vn 0.000000 1.000000 -0.000068
vn 0.000000 -1.000000 -0.000066
vn 0.000000 -1.000000 -0.000068
vn 0.000000 -1.000000 -0.000068
vn 0.000000 -1.000000 -0.000068
vn 0.000000 1.000000 -0.000026
vn 0.000000 1.000000 -0.000026
vn 0.000000 1.000000 -0.000068
vn 0.000000 1.000000 -0.000068
vn 0.000000 -1.000000 -0.000068
vn 0.000000 -1.000000 -0.000068
vn 0.000000 -1.000000 -0.000070
vn 0.000000 -1.000000 -0.000068
vn 0.000000 1.000000 -0.000026
vn 0.000000 1.000000 -0.000026
vn 0.000000 1.000000 -0.000068
vn 0.000000 1.000000 -0.000070
vn 1.000000 0.000000 0.000000
vn 1.000000 0.000000 0.000000
vn 1.000000 0.000000 0.000000
vn 1.000000 0.000000 0.000000
vn 0.000000 1.000000 0.000000
vn 0.000000 1.000000 0.000000
vn 0.000000 1.000000 0.000000
vn 0.000000 1.000000 0.000000
vn -1.000000 0.000000 -0.000000
vn -1.000000 0.000000 -0.000000
vn -1.000000 0.000000 -0.000000
vn -1.000000 0.000000 -0.000000
vn 0.000000 0.000000 -1.000000
vn 0.000000 0.000000 -1.000000
vn 0.000000 0.000000 -1.000000
vn 0.000000 0.000000 -1.000000
vn -0.000000 0.000000 1.000000
vn -0.000000 0.000000 1.000000
vn -0.000000 0.000000 1.000000
vn -0.000000 0.000000 1.000000
vn 1.000000 0.000000 0.000000
vn 1.000000 0.000000 0.000000
vn 1.000000 0.000000 0.000000
vn 1.000000 0.000000 0.000000
vn 0.000000 1.000000 0.000000
vn 0.000000 1.000000 0.000000
vn 0.000000 1.000000 0.000000
vn 0.000000 1.000000 0.000000
vn -1.000000 0.000000 -0.000000
vn -1.000000 0.000000 -0.000000
vn -1.000000 0.000000 -0.000000
vn -1.000000 0.000000 -0.000000
vn 0.000000 -1.000000 0.000000
vn 0.000000 -1.000000 0.000000
vn 0.000000 -1.000000 0.000000
vn 0.000000 -1.000000 0.000000
vn 0.000000 0.000000 -1.000000
vn 0.000000 0.000000 -1.000000
vn 0.000000 0.000000 -1.000000
vn 0.000000 0.000000 -1.000000
vn -0.000000 0.000000 1.000000
vn -0.000000 0.000000 1.000000
vn -0.000000 0.000000 1.000000
vn -0.000000 0.000000 1.000000
vn -1.000000 0.000000 -0.000000
vn -1.000000 0.000000 -0.000000
vn -1.000000 0.000000 -0.000000
vn -1.000000 0.000000 -0.000000
vn 0.000000 1.000000 0.000000
vn 0.000000 1.000000 0.000000
vn 0.000000 1.000000 0.000000
vn 0.000000 1.000000 0.000000
vn 1.000000 0.000000 0.000000
vn 1.000000 0.000000 0.000000
vn 1.000000 0.000000 0.000000
vn 1.000000 0.000000 0.000000
vn 0.000000 0.000000 -1.000000
vn 0.000000 0.000000 -1.000000
vn 0.000000 0.000000 -1.000000
vn 0.000000 0.000000 -1.000000
vn -0.000000 0.000000 1.000000
vn -0.000000 0.000000 1.000000
vn -0.000000 0.000000 1.000000
vn -0.000000 0.000000 1.000000
vn -1.000000 0.000000 -0.000000
vn -1.000000 0.000000 -0.000000
vn -1.000000 0.000000 -0.000000
vn -1.000000 0.000000 -0.000000
vn 0.000000 1.000000 0.000000
vn 0.000000 1.000000 0.000000
vn 0.000000 1.000000 0.000000
vn 0.000000 1.000000 0.000000
vn 1.000000 0.000000 0.000000
vn 1.000000 0.000000 0.000000
vn 1.000000 0.000000 0.000000
vn 1.000000 0.000000 0.000000
vn -0.000000 0.000000 1.000000
vn -0.000000 0.000000 1.000000
vn -0.000000 0.000000 1.000000
vn -0.000000 0.000000 1.000000
vn 0.000000 0.000000 -1.000000
vn 0.000000 0.000000 -1.000000
vn 0.000000 0.000000 -1.000000
vn 0.000000 0.000000 -1.000000
vn 1.000000 0.000000 0.000000
vn 1.000000 0.000000 0.000000
vn 1.000000 0.000000 0.000000
vn 1.000000 0.000000 0.000000
vn 0.000000 1.000000 0.000000
vn 0.000000 1.000000 0.000000
vn 0.000000 1.000000 0.000000
vn 0.000000 1.000000 0.000000
vn -1.000000 0.000000 -0.000000
vn -1.000000 0.000000 -0.000000
vn -1.000000 0.000000 -0.000000
vn -1.000000 0.000000 -0.000000
vn -0.000000 0.000000 1.000000
vn -0.000000 0.000000 1.000000
vn -0.000000 0.000000 1.000000
vn -0.000000 0.000000 1.000000
vn 0.000000 0.000000 -1.000000
vn 0.000000 0.000000 -1.000000
vn 0.000000 0.000000 -1.000000
vn 0.000000 0.000000 -1.000000
f 1/1/1 2/2/2 4/3/3 3/4/4
f 9/5/5 10/6/6 11/7/7 12/8/8
f 5/9/9 6/10/10 8/11/11 7/12/12
f 7/12/13 8/11/14 2/2/15 1/1/16
f 2/2/17 8/11/18 6/10/19 4/3/20
f 7/12/21 1/1/22 3/4/23 5/9/24
f 13/13/25 14/14/26 15/15/27 16/16/28
f 14/14/29 17/17/30 18/18/31 15/15/32
f 17/17/33 19/19/34 20/20/35 18/18/36
f 19/19/37 13/13/38 16/16/39 20/20/40
f 3/4/41 4/3/42 14/21/43 13/22/44
f 10/6/45 9/5/46 16/16/47 15/15/48
f 4/3/49 6/10/50 17/23/51 14/21/52
f 11/7/53 10/6/54 15/15/55 18/18/56
f 6/10/57 5/9/58 19/24/59 17/23/60
f 12/8/61 11/7/62 18/18/63 20/20/64
f 5/9/65 3/4/66 13/22/67 19/24/68
f 9/5/69 12/8/70 20/20/71 16/16/72
f 21/25/73 22/26/74 24/27/75 23/28/76
f 23/28/77 24/29/78 26/30/79 25/31/80
f 25/31/81 26/32/82 28/33/83 27/34/84
f 22/35/85 28/33/86 26/32/87 24/36/88
f 27/34/89 21/25/90 23/28/91 25/31/92
f 29/37/93 30/38/94 32/39/95 31/40/96
f 31/40/97 32/39/98 34/41/99 33/42/100
f 33/42/101 34/41/102 36/43/103 35/44/104
f 35/45/105 36/46/106 30/47/107 29/48/108
f 30/49/109 36/50/110 34/41/111 32/39/112
f 35/45/113 29/48/114 31/40/115 33/42/116
f 37/51/117 39/52/118 40/53/119 38/54/120
f 39/55/121 41/56/122 42/57/123 40/58/124
f 41/56/125 43/59/126 44/60/127 42/57/128
f 38/61/129 40/62/130 42/57/131 44/60/132
f 43/59/133 41/56/134 39/52/135 37/51/136
f 45/63/137 46/64/138 48/65/139 47/66/140
f 47/66/141 48/67/142 50/68/143 49/69/144
f 49/69/145 50/70/146 52/71/147 51/72/148
f 46/73/149 52/71/150 50/70/151 48/74/152
f 51/72/153 45/63/154 47/66/155 49/69/156
f 53/75/157 55/76/158 56/77/159 54/78/160
f 55/79/161 57/80/162 58/81/163 56/82/164
f 57/80/165 59/83/166 60/84/167 58/81/168
f 54/85/169 56/86/170 58/81/171 60/84/172
f 59/83/173 57/80/174 55/76/175 53/75/176
